<svg width="140" height="140" viewBox="0 0 140 140" fill="none" xmlns="http://www.w3.org/2000/svg">
<path d="M48.0513 27.8074L31.736 44.1227C31.2469 44.9414 30.7844 45.776 30.3432 46.6266L50.5552 26.4145C49.7046 26.8558 48.87 27.3183 48.0513 27.8074Z" fill="#F5CF45"/>
<path d="M60.942 22.4646L26.3923 57.0091C26.254 57.5726 26.1211 58.1361 25.9989 58.705L62.6378 22.0712C62.069 22.1935 61.5002 22.3211 60.942 22.4646Z" fill="#F5CF45"/>
<path d="M69.8312 21.1196L25.0478 65.8977C25.0213 66.4134 25.0106 66.9291 25 67.4501L71.3835 21.0718C70.8625 21.0824 70.3468 21.093 69.8312 21.1196Z" fill="#F5CF45"/>
<path d="M77.221 21.2791L25.2077 73.2872C25.2555 73.7923 25.3246 74.2973 25.3937 74.797L78.7307 21.4599C78.2257 21.3961 77.726 21.327 77.221 21.2738V21.2791Z" fill="#F5CF45"/>
<path d="M83.6643 22.3743L26.3083 79.7357C26.4305 80.2408 26.5581 80.7405 26.6964 81.2402L85.1688 22.7623C84.6691 22.6241 84.1693 22.4965 83.6643 22.3743Z" fill="#F5CF45"/>
<path d="M89.4258 24.1605L28.0879 85.4985C28.2793 85.9982 28.4707 86.5032 28.678 86.9976L90.9249 24.7506C90.4305 24.5432 89.9308 24.3519 89.4258 24.1605Z" fill="#F5CF45"/>
<path d="M94.6207 26.5102L30.4387 90.6924C30.6992 91.1868 30.9703 91.6759 31.2521 92.165L96.0932 27.3236C95.6095 27.0472 95.1204 26.7707 94.6207 26.5102Z" fill="#F5CF45"/>
<path d="M99.3307 29.3491L33.2774 95.4025C33.6123 95.8916 33.9526 96.3754 34.3088 96.8538L100.782 30.3804C100.309 30.0295 99.8198 29.684 99.3307 29.3491Z" fill="#F5CF45"/>
<path d="M103.584 32.6398L36.5689 99.6554C36.9835 100.134 37.4035 100.602 37.8341 101.064L104.988 33.9103C104.525 33.4797 104.058 33.0544 103.579 32.6451L103.584 32.6398Z" fill="#F5CF45"/>
<path d="M107.421 36.3505L40.2777 103.488C40.7774 103.951 41.2878 104.397 41.8035 104.833L108.766 37.8709C108.325 37.3552 107.878 36.8449 107.421 36.3451V36.3505Z" fill="#F5CF45"/>
<path d="M110.83 40.4864L44.4206 106.896C45.0107 107.332 45.6114 107.752 46.2281 108.156L112.095 42.2886C111.686 41.6773 111.266 41.0765 110.83 40.4811V40.4864Z" fill="#F5CF45"/>
<path d="M113.796 45.0637L48.9975 109.862C49.6939 110.261 50.4009 110.639 51.1186 111L114.934 47.1848C114.572 46.4671 114.19 45.7601 113.791 45.0637H113.796Z" fill="#F5CF45"/>
<path d="M116.299 50.1087L54.0416 112.366C54.8603 112.712 55.6949 113.031 56.5402 113.329L117.267 52.602C116.964 51.762 116.65 50.9274 116.304 50.1087H116.299Z" fill="#F5CF45"/>
<path d="M118.239 55.7066L59.6339 114.312C60.5962 114.583 61.5743 114.828 62.5631 115.04L118.968 58.6358C118.755 57.647 118.51 56.6742 118.239 55.7066Z" fill="#F5CF45"/>
<path d="M119.547 61.9531L65.8804 115.62C67.034 115.779 68.1983 115.896 69.3731 115.976L119.903 65.4459C119.829 64.271 119.707 63.1014 119.547 61.9531Z" fill="#F5CF45"/>
<path d="M72.9679 116.072C74.4086 116.056 75.8334 115.987 77.2368 115.849L119.777 73.3085C119.915 71.905 119.989 70.475 120 69.0396L72.9679 116.072Z" fill="#F5CF45"/>
<path d="M117.75 83.0796C118.34 81.2349 118.819 79.3423 119.18 77.4073L81.3347 115.253C83.2697 114.886 85.1623 114.413 87.007 113.823L117.75 83.0796Z" fill="#F5CF45"/>
<path d="M115.63 88.5074L92.4405 111.697C102.653 106.965 110.898 98.7198 115.63 88.5074Z" fill="#F5CF45"/>
<circle cx="71.9062" cy="69" r="56" stroke="#0E1C2D" stroke-width="2" stroke-linecap="round" stroke-linejoin="round"/>
<path d="M64.0764 60.53C69.0155 65.0333 78.1618 63.2569 80.346 56.3471C83.0923 47.9822 75.2142 40.7055 67.814 43.6013C61.2823 45.7986 58.3208 55.3747 63.9915 60.4575L64.0764 60.53Z" stroke="#0E1C2D" stroke-width="2" stroke-linecap="round" stroke-linejoin="round"/>
<path d="M54.4878 88.1316C52.945 83.0455 55.3947 76.8357 59.1526 72.7791C67.1503 63.756 80.4604 64.8556 88.234 73.195C95.7516 80.8083 94.0718 90.5471 84.9092 95.4674C75.5604 100.752 58.2137 99.2366 54.5192 88.2314L54.487 88.1253L54.4878 88.1316Z" stroke="#0E1C2D" stroke-width="2" stroke-linecap="round" stroke-linejoin="round"/>
<path d="M67.0502 6C67.0102 12.61 67.4002 19.22 68.2402 25.77" stroke="#0E1C2D" stroke-width="2" stroke-linecap="round" stroke-linejoin="round"/>
<path d="M113.06 64.7301C119.38 63.8601 125.72 63.1501 132.08 62.6001" stroke="#0E1C2D" stroke-width="2" stroke-linecap="round" stroke-linejoin="round"/>
<path d="M71.1499 118.6C71.4499 123.73 72.1899 128.84 73.3599 133.85" stroke="#0E1C2D" stroke-width="2" stroke-linecap="round" stroke-linejoin="round"/>
<path d="M8 70.6501L30.97 68.0801" stroke="#0E1C2D" stroke-width="2" stroke-linecap="round" stroke-linejoin="round"/>
</svg>
